<?xml version="1.0" standalone="no"?>
<!DOCTYPE svg PUBLIC "-//W3C//DTD SVG 20010904//EN"
 "http://www.w3.org/TR/2001/REC-SVG-20010904/DTD/svg10.dtd">
<svg version="1.0" xmlns="http://www.w3.org/2000/svg"
 width="260.000000pt" height="260.000000pt" viewBox="0 0 260.000000 260.000000"
 preserveAspectRatio="xMidYMid meet">
<metadata>
Created by potrace 1.11, written by Peter Selinger 2001-2013
</metadata>
<g transform="translate(0.000000,260.000000) scale(0.100000,-0.100000)"
fill="#000000" stroke="none">
<path d="M1020 1915 c0 -20 -5 -25 -25 -25 -20 0 -25 -5 -25 -25 0 -20 -5 -25
-25 -25 l-25 0 0 -105 0 -105 25 0 c23 0 25 3 25 50 l0 50 50 0 50 0 0 -125 0
-125 -100 0 -100 0 0 50 c0 49 -1 50 -30 50 -25 0 -30 4 -30 25 0 20 -5 25
-25 25 -20 0 -25 5 -25 25 0 20 -5 25 -25 25 -20 0 -25 5 -25 25 0 20 -5 25
-25 25 -21 0 -25 5 -25 30 l0 30 -280 0 -280 0 0 -30 c0 -25 -4 -30 -25 -30
-20 0 -25 -5 -25 -25 0 -20 -5 -25 -25 -25 -24 0 -25 -2 -25 -75 l0 -75 50 0
50 0 0 50 c0 47 2 50 25 50 20 0 25 5 25 25 l0 25 105 0 105 0 0 -455 0 -455
25 0 c24 0 25 -3 25 -55 0 -52 1 -55 25 -55 23 0 25 -3 25 -50 0 -47 2 -50 25
-50 20 0 25 -5 25 -25 0 -24 2 -25 75 -25 l75 0 0 -100 0 -100 -180 0 -180 0
0 -25 0 -25 180 0 180 0 0 -25 0 -25 -205 0 -205 0 0 -30 0 -30 1020 0 1020 0
0 30 c0 29 1 30 50 30 l50 0 0 50 c0 49 1 50 30 50 l30 0 0 125 0 125 -30 0
c-25 0 -30 4 -30 25 0 20 -5 25 -25 25 -20 0 -25 5 -25 25 0 24 -2 25 -75 25
l-75 0 0 -50 0 -50 50 0 c47 0 50 -2 50 -25 0 -20 5 -25 25 -25 24 0 25 -2 25
-75 0 -73 -1 -75 -25 -75 -20 0 -25 -5 -25 -25 l0 -25 -255 0 -255 0 0 100 0
100 105 0 105 0 0 25 c0 20 5 25 25 25 23 0 25 3 25 50 0 47 2 50 25 50 l25 0
0 310 0 310 150 0 150 0 0 -30 0 -30 105 0 105 0 0 30 0 30 -105 0 -105 0 0
25 c0 20 -5 25 -25 25 -20 0 -25 5 -25 25 l0 25 130 0 130 0 0 25 0 25 -155 0
-155 0 0 25 0 25 -100 0 -100 0 0 -25 c0 -20 -5 -25 -25 -25 -20 0 -25 -5 -25
-25 0 -23 -3 -25 -50 -25 -47 0 -50 -2 -50 -25 l0 -25 -130 0 -130 0 0 -25 c0
-24 -2 -25 -75 -25 -73 0 -75 1 -75 25 0 20 -5 25 -25 25 -20 0 -25 5 -25 25
0 20 -5 25 -25 25 -20 0 -25 5 -25 25 0 20 -5 25 -25 25 -20 0 -25 5 -25 25 0
20 5 25 25 25 23 0 25 3 25 50 0 47 -2 50 -25 50 -20 0 -25 5 -25 25 0 21 -5
25 -30 25 l-30 0 0 105 0 105 -25 0 c-20 0 -25 5 -25 25 0 20 -5 25 -25 25
-20 0 -25 5 -25 25 l0 25 -100 0 -100 0 0 -25z m1220 -560 c0 -23 -3 -25 -50
-25 -47 0 -50 2 -50 25 0 23 3 25 50 25 47 0 50 -2 50 -25z m-250 -155 c0 -79
0 -80 -25 -80 -23 0 -25 -3 -25 -50 0 -49 -1 -50 -30 -50 -25 0 -30 -4 -30
-25 l0 -25 -175 0 -175 0 0 25 c0 20 5 25 25 25 23 0 25 3 25 50 l0 50 75 0
75 0 0 50 0 50 105 0 105 0 0 30 c0 25 4 30 25 30 25 0 25 -1 25 -80z m-310
-790 l0 -100 -460 0 -460 0 0 100 0 100 460 0 460 0 0 -100z m0 -175 l0 -25
-485 0 -485 0 0 25 0 25 485 0 485 0 0 -25z m560 0 l0 -25 -255 0 -255 0 0 25
0 25 255 0 255 0 0 -25z"/>
</g>
</svg>
